<?xml version="1.0" standalone="no"?>
<!DOCTYPE svg PUBLIC "-//W3C//DTD SVG 20010904//EN"
 "http://www.w3.org/TR/2001/REC-SVG-20010904/DTD/svg10.dtd">
<svg version="1.0" xmlns="http://www.w3.org/2000/svg"
 width="512.000000pt" height="512.000000pt" viewBox="0 0 512.000000 512.000000"
 preserveAspectRatio="xMidYMid meet">
<metadata>
Created by potrace 1.14, written by Peter Selinger 2001-2017
</metadata>
<g transform="translate(0.000000,512.000000) scale(0.100000,-0.100000)"
fill="#000000" stroke="none">
<path d="M1899 5116 c-2 -2 -38 -6 -79 -10 -41 -3 -86 -8 -100 -11 -14 -3 -43
-8 -65 -11 -146 -20 -374 -94 -540 -175 -239 -116 -363 -205 -545 -389 -313
-316 -508 -744 -558 -1220 -14 -135 -7 -453 12 -600 20 -143 95 -452 135 -552
13 -32 24 -61 27 -73 13 -50 124 -286 192 -410 98 -176 278 -431 407 -574 104
-117 279 -286 385 -371 30 -25 57 -47 60 -50 24 -27 259 -189 361 -249 254
-151 536 -268 829 -342 41 -11 93 -22 115 -25 22 -3 56 -9 75 -14 19 -5 58
-11 85 -15 28 -3 66 -8 85 -11 19 -3 121 -6 225 -8 173 -3 241 0 375 19 92 12
106 15 167 29 34 9 75 18 90 21 15 2 82 23 148 46 635 218 1099 725 1265 1382
34 136 40 168 60 342 7 70 6 452 -3 490 -2 11 -8 47 -12 80 -31 260 -135 601
-266 870 -170 349 -365 621 -644 900 -144 144 -149 148 -377 330 -35 29 -198
135 -293 192 -293 175 -662 314 -981 369 -16 3 -36 7 -44 9 -8 2 -42 7 -75 11
-33 3 -69 8 -80 11 -25 5 -431 14 -436 9z m-1105 -836 c63 -85 128 -173 144
-195 229 -318 366 -477 561 -655 65 -59 349 -250 372 -250 5 0 26 -10 47 -23
20 -13 66 -36 102 -51 36 -16 83 -36 105 -46 70 -31 235 -87 410 -140 375
-114 580 -185 610 -211 5 -5 14 -9 21 -9 15 0 158 -80 249 -138 255 -166 474
-391 645 -662 142 -225 273 -538 336 -800 2 -8 10 -42 18 -75 8 -33 17 -80 21
-105 4 -24 8 -47 10 -50 3 -5 9 -43 20 -125 4 -27 9 -63 11 -80 6 -35 20 -53
-293 364 -114 151 -241 315 -282 365 -149 178 -333 349 -486 450 -246 163
-487 265 -910 384 -318 90 -449 138 -616 224 -573 298 -983 848 -1163 1563
-14 55 -27 111 -30 125 -2 14 -10 50 -16 80 -6 30 -13 69 -15 85 -4 29 -11 75
-21 140 -5 30 -5 30 15 10 11 -11 71 -90 135 -175z"/>
</g>
</svg>
